<svg xmlns="http://www.w3.org/2000/svg" xmlns:xlink="http://www.w3.org/1999/xlink" width="51" height="28" viewBox="0 0 51 28"><defs><path id="a" d="M1496.72 45.41c0-1.1.9-2 2-2H1529a2 2 0 0 1 2 2v.19a2 2 0 0 1-2 2h-30.28a2 2 0 0 1-2-2zm13.72 10.43c0-1.1.9-2 2-2H1529a2 2 0 0 1 2 2V56a2 2 0 0 1-2 2h-16.56a2 2 0 0 1-2-2zM1483 35c0-1.1.9-2 2-2h44a2 2 0 0 1 2 2v.16a2 2 0 0 1-2 2h-44a2 2 0 0 1-2-2z"/></defs><desc>Generated with Avocode.</desc><g transform="translate(-1481 -31)"><use fill="#fff" xlink:href="#a"/></g></svg>