<svg xmlns="http://www.w3.org/2000/svg" xmlns:xlink="http://www.w3.org/1999/xlink" width="60" height="60" viewBox="0 0 60 60"><defs><path id="a" d="M704.66 305.74l-1.72.04-.03-1.78c0-8.77 1.77-10.6 5.52-12.47.9-.45 1.82-.85 2.82-1.62l2.13 2.71c-1.27.98-2.45 1.56-3.4 2.03-2.24 1.12-3.36 1.75-3.54 7.64 6.11-.22 6.8-1.74 7.9-4.02.43-.89.92-1.9 1.7-2.95l2.59 2.35c-.64 1.06-.86 1.6-1.24 2.38-1.73 3.6-3.46 5.7-12.73 5.7zm36.73-31.35a7.01 7.01 0 0 1-7-7 7.01 7.01 0 0 1 14.01 0c0 3.86-3.14 7-7 7zm0-10.49a3.5 3.5 0 1 0 0 7 3.5 3.5 0 0 0 0-7zm-15.21 42.14a1.75 1.75 0 0 1-1.7-1.34l-2.13-8.99-3.95-4.37c-1.9-2.1-3.08-3.4-3.79-4.28l-10.43-2.38a1.74 1.74 0 0 1-.91-2.86l6.4-6.94c.34-.37.81-.58 1.31-.58h9.72c.6-1.09 1.32-2.5 2.07-4 1.93-3.84 4.12-8.48 6.32-11.04a21.18 21.18 0 0 1 8.9-6.39c9.42-3.5 19.2-2.8 19.2-2.8.87.07 1.56.77 1.61 1.64.03.46.66 11.33-2.28 19.21-1.23 3.32-2.49 5.56-5.94 8.63-2.45 2.17-8.35 4.92-12.31 7.13-1.45.8-3 1.64-3.87 2.18v9c0 .51-.22 1-.6 1.33l-6.48 6.43c-.32.27-.73.42-1.14.42zm-9.37-21.69c.37.43 5.22 5.8 8.44 9.36.2.22.33.48.4.77l1.57 6.63 3.69-4.05v-9.12c0-.52.23-1.02.64-1.35.7-.58 2.32-1.46 5.01-2.96 3.61-2.01 9.54-4.77 11.7-6.7 2.93-2.6 3.9-4.33 4.99-7.22 2.05-5.53 2.18-13 2.12-16.2-3.04-.03-9.7.22-16.15 2.63a17.6 17.6 0 0 0-7.48 5.39c-1.92 2.24-4.1 6.85-5.85 10.34a75.13 75.13 0 0 1-2.7 5.09c-.31.51-.87.83-1.48.83h-9.94l-3.93 4.14 8 1.83c.39.09.72.3.97.59z"/></defs><desc>Generated with Avocode.</desc><g transform="translate(-701 -248)"><use fill="#1b1b1b" xlink:href="#a"/><use fill="#ef9325" xlink:href="#a"/></g></svg>